<svg width="309" height="54" viewBox="0 0 309 54" fill="none" xmlns="http://www.w3.org/2000/svg">
<g filter="url(#filter0_d_59018_254)">
<path d="M14.0898 21.35H4.55875C5.4055 9.69422 15.1288 0.5 26.9997 0.5C39.4265 0.5 49.4997 10.5732 49.4997 23V39.1C49.4997 40.7974 48.8255 42.4253 47.6252 43.6255C46.425 44.8257 44.7971 45.5 43.0997 45.5H28.6497V35.9099C28.6497 33.6067 28.7971 31.3528 29.9232 29.5252L29.9233 29.525C30.7502 28.1817 31.8564 27.032 33.1667 26.1538C34.4771 25.2756 35.961 24.6896 37.5177 24.4353L37.9575 24.3641L37.9993 24.3574L38.0393 24.3437C38.3196 24.2479 38.5629 24.0668 38.7351 23.8259C38.9074 23.585 39 23.2962 39 23C39 22.7038 38.9074 22.415 38.7351 22.1741C38.5629 21.9332 38.3196 21.7521 38.0393 21.6563L37.9993 21.6426L37.9575 21.6359L37.5177 21.5647C35.2431 21.1931 33.1427 20.1165 31.513 18.4868C29.8833 16.857 28.8066 14.7566 28.4351 12.482L28.3639 12.0422L28.3571 12.0005L28.3434 11.9604C28.2476 11.6802 28.0666 11.4369 27.8256 11.2646L27.5348 11.6713L27.8256 11.2646C27.5847 11.0923 27.2959 10.9997 26.9997 10.9997C26.7036 10.9997 26.4148 11.0923 26.1738 11.2646C25.9329 11.4369 25.7519 11.6802 25.6561 11.9604L25.6424 12.0005L25.6356 12.0423L25.5644 12.482C25.5644 12.4822 25.5644 12.4823 25.5644 12.4824C25.3102 14.039 24.7241 15.5228 23.846 16.8331C22.9678 18.1434 21.8181 19.2495 20.4748 20.0764L20.4745 20.0765C18.647 21.2027 16.3931 21.35 14.0898 21.35Z" fill="#1C274C" stroke="#CB9DEA"/>
<path d="M4.5 24.65H14.0901C16.3933 24.65 18.6472 24.7973 20.4748 25.9235C21.9401 26.8264 23.1736 28.0599 24.0765 29.5252C25.2027 31.3528 25.35 33.6067 25.35 35.9099V45.5H10.9C9.20261 45.5 7.57475 44.8257 6.37452 43.6255C5.17428 42.4253 4.5 40.7974 4.5 39.1V24.65ZM49.5 2.3C49.5 2.77739 49.3104 3.23523 48.9728 3.57279C48.6352 3.91036 48.1774 4.1 47.7 4.1C47.2226 4.1 46.7648 3.91036 46.4272 3.57279C46.0896 3.23523 45.9 2.77739 45.9 2.3C45.9 1.82261 46.0896 1.36477 46.4272 1.02721C46.7648 0.689642 47.2226 0.5 47.7 0.5C48.1774 0.5 48.6352 0.689642 48.9728 1.02721C49.3104 1.36477 49.5 1.82261 49.5 2.3Z" fill="#1C274C" stroke="#CB9DEA"/>
</g>
<path d="M63.448 37V13.098H68.072V37H63.448ZM78.442 37V13.098H83.066V37H78.442ZM66.372 26.698V22.618H79.734V26.698H66.372ZM95.3299 37.34C93.6072 37.34 92.0772 36.9773 90.7399 36.252C89.4026 35.504 88.3372 34.484 87.5439 33.192C86.7732 31.9 86.3879 30.4267 86.3879 28.772C86.3879 27.14 86.7619 25.6893 87.5099 24.42C88.2806 23.128 89.3232 22.108 90.6379 21.36C91.9526 20.5893 93.4146 20.204 95.0239 20.204C96.6106 20.204 98.0046 20.5667 99.2059 21.292C100.43 21.9947 101.382 22.9693 102.062 24.216C102.765 25.44 103.116 26.834 103.116 28.398C103.116 28.6927 103.093 28.9987 103.048 29.316C103.025 29.6107 102.969 29.9507 102.878 30.336L89.0739 30.37V27.038L100.804 27.004L99.0019 28.398C98.9566 27.4233 98.7752 26.6073 98.4579 25.95C98.1632 25.2927 97.7212 24.794 97.1319 24.454C96.5652 24.0913 95.8626 23.91 95.0239 23.91C94.1399 23.91 93.3692 24.114 92.7119 24.522C92.0546 24.9073 91.5446 25.4627 91.1819 26.188C90.8419 26.8907 90.6719 27.7293 90.6719 28.704C90.6719 29.7013 90.8532 30.574 91.2159 31.322C91.6012 32.0473 92.1452 32.614 92.8479 33.022C93.5506 33.4073 94.3666 33.6 95.2959 33.6C96.1346 33.6 96.8939 33.464 97.5739 33.192C98.2539 32.8973 98.8432 32.4667 99.3419 31.9L101.96 34.518C101.167 35.4473 100.192 36.15 99.0359 36.626C97.9026 37.102 96.6672 37.34 95.3299 37.34ZM112.738 37.34C111.242 37.34 109.894 36.966 108.692 36.218C107.491 35.47 106.55 34.45 105.87 33.158C105.19 31.866 104.85 30.4153 104.85 28.806C104.85 27.174 105.19 25.712 105.87 24.42C106.55 23.128 107.491 22.108 108.692 21.36C109.894 20.612 111.242 20.238 112.738 20.238C113.917 20.238 114.971 20.476 115.9 20.952C116.83 21.428 117.566 22.0967 118.11 22.958C118.677 23.7967 118.983 24.7487 119.028 25.814V31.73C118.983 32.818 118.677 33.7813 118.11 34.62C117.566 35.4587 116.83 36.1273 115.9 36.626C114.971 37.102 113.917 37.34 112.738 37.34ZM113.554 33.226C114.801 33.226 115.81 32.818 116.58 32.002C117.351 31.1633 117.736 30.0867 117.736 28.772C117.736 27.9107 117.555 27.1513 117.192 26.494C116.852 25.814 116.365 25.2927 115.73 24.93C115.118 24.5447 114.393 24.352 113.554 24.352C112.738 24.352 112.013 24.5447 111.378 24.93C110.766 25.2927 110.279 25.814 109.916 26.494C109.576 27.1513 109.406 27.9107 109.406 28.772C109.406 29.656 109.576 30.438 109.916 31.118C110.279 31.7753 110.766 32.2967 111.378 32.682C112.013 33.0447 112.738 33.226 113.554 33.226ZM117.498 37V32.58L118.212 28.568L117.498 24.624V20.578H121.918V37H117.498ZM125.859 37V12.418H130.313V37H125.859ZM136.673 37V13.744H141.127V37H136.673ZM132.831 24.488V20.578H144.969V24.488H132.831ZM158.524 37V27.582C158.524 26.6073 158.218 25.814 157.606 25.202C156.994 24.59 156.201 24.284 155.226 24.284C154.591 24.284 154.025 24.42 153.526 24.692C153.027 24.964 152.631 25.3493 152.336 25.848C152.064 26.3467 151.928 26.9247 151.928 27.582L150.194 26.698C150.194 25.406 150.466 24.284 151.01 23.332C151.554 22.3573 152.302 21.598 153.254 21.054C154.229 20.51 155.339 20.238 156.586 20.238C157.833 20.238 158.932 20.51 159.884 21.054C160.859 21.598 161.618 22.346 162.162 23.298C162.706 24.25 162.978 25.3493 162.978 26.596V37H158.524ZM147.474 37V12.418H151.928V37H147.474ZM167.042 37V13.098H171.666V37H167.042ZM182.036 37V13.098H186.66V37H182.036ZM169.966 26.698V22.618H183.328V26.698H169.966ZM197.938 37.34C196.442 37.34 195.093 36.966 193.892 36.218C192.69 35.47 191.75 34.45 191.07 33.158C190.39 31.866 190.05 30.4153 190.05 28.806C190.05 27.174 190.39 25.712 191.07 24.42C191.75 23.128 192.69 22.108 193.892 21.36C195.093 20.612 196.442 20.238 197.938 20.238C199.116 20.238 200.17 20.476 201.1 20.952C202.029 21.428 202.766 22.0967 203.31 22.958C203.876 23.7967 204.182 24.7487 204.228 25.814V31.73C204.182 32.818 203.876 33.7813 203.31 34.62C202.766 35.4587 202.029 36.1273 201.1 36.626C200.17 37.102 199.116 37.34 197.938 37.34ZM198.754 33.226C200 33.226 201.009 32.818 201.78 32.002C202.55 31.1633 202.936 30.0867 202.936 28.772C202.936 27.9107 202.754 27.1513 202.392 26.494C202.052 25.814 201.564 25.2927 200.93 24.93C200.318 24.5447 199.592 24.352 198.754 24.352C197.938 24.352 197.212 24.5447 196.578 24.93C195.966 25.2927 195.478 25.814 195.116 26.494C194.776 27.1513 194.606 27.9107 194.606 28.772C194.606 29.656 194.776 30.438 195.116 31.118C195.478 31.7753 195.966 32.2967 196.578 32.682C197.212 33.0447 197.938 33.226 198.754 33.226ZM202.698 37V32.58L203.412 28.568L202.698 24.624V20.578H207.118V37H202.698ZM211.058 37V20.578H215.512V37H211.058ZM215.512 27.922L213.778 26.766C213.982 24.7487 214.571 23.162 215.546 22.006C216.521 20.8273 217.926 20.238 219.762 20.238C220.555 20.238 221.269 20.374 221.904 20.646C222.539 20.8953 223.117 21.3147 223.638 21.904L220.85 25.1C220.601 24.828 220.295 24.624 219.932 24.488C219.592 24.352 219.195 24.284 218.742 24.284C217.79 24.284 217.008 24.59 216.396 25.202C215.807 25.7913 215.512 26.698 215.512 27.922ZM225.136 37V20.578H229.59V37H225.136ZM235.846 37V27.31C235.846 26.358 235.54 25.6213 234.928 25.1C234.339 24.556 233.602 24.284 232.718 24.284C232.129 24.284 231.596 24.4087 231.12 24.658C230.644 24.8847 230.27 25.2247 229.998 25.678C229.726 26.1313 229.59 26.6753 229.59 27.31L227.856 26.46C227.856 25.1907 228.128 24.0913 228.672 23.162C229.239 22.2327 229.998 21.5187 230.95 21.02C231.902 20.4987 232.979 20.238 234.18 20.238C235.313 20.238 236.345 20.4987 237.274 21.02C238.203 21.5187 238.94 22.2327 239.484 23.162C240.028 24.0687 240.3 25.168 240.3 26.46V37H235.846ZM246.556 37V27.31C246.556 26.358 246.25 25.6213 245.638 25.1C245.049 24.556 244.312 24.284 243.428 24.284C242.861 24.284 242.329 24.4087 241.83 24.658C241.354 24.8847 240.98 25.2247 240.708 25.678C240.436 26.1313 240.3 26.6753 240.3 27.31L237.75 26.698C237.841 25.3833 238.192 24.25 238.804 23.298C239.416 22.3233 240.221 21.5753 241.218 21.054C242.215 20.51 243.326 20.238 244.55 20.238C245.774 20.238 246.873 20.4987 247.848 21.02C248.823 21.5187 249.593 22.244 250.16 23.196C250.727 24.148 251.01 25.2813 251.01 26.596V37H246.556ZM262.338 37.34C260.684 37.34 259.188 36.966 257.85 36.218C256.536 35.4473 255.482 34.416 254.688 33.124C253.918 31.8093 253.532 30.3473 253.532 28.738C253.532 27.1287 253.918 25.6893 254.688 24.42C255.459 23.128 256.513 22.108 257.85 21.36C259.188 20.5893 260.672 20.204 262.304 20.204C263.982 20.204 265.478 20.5893 266.792 21.36C268.13 22.108 269.184 23.128 269.954 24.42C270.725 25.6893 271.11 27.1287 271.11 28.738C271.11 30.3473 270.725 31.8093 269.954 33.124C269.184 34.416 268.13 35.4473 266.792 36.218C265.478 36.966 263.993 37.34 262.338 37.34ZM262.304 33.192C263.143 33.192 263.88 33.0107 264.514 32.648C265.172 32.2627 265.67 31.7413 266.01 31.084C266.373 30.404 266.554 29.6333 266.554 28.772C266.554 27.9107 266.373 27.1513 266.01 26.494C265.648 25.8367 265.149 25.3267 264.514 24.964C263.88 24.5787 263.143 24.386 262.304 24.386C261.488 24.386 260.763 24.5787 260.128 24.964C259.494 25.3267 258.995 25.8367 258.632 26.494C258.27 27.1513 258.088 27.9107 258.088 28.772C258.088 29.6333 258.27 30.404 258.632 31.084C258.995 31.7413 259.494 32.2627 260.128 32.648C260.763 33.0107 261.488 33.192 262.304 33.192ZM285.028 37V27.582C285.028 26.6073 284.722 25.814 284.11 25.202C283.498 24.59 282.705 24.284 281.73 24.284C281.095 24.284 280.529 24.42 280.03 24.692C279.531 24.964 279.135 25.3493 278.84 25.848C278.568 26.3467 278.432 26.9247 278.432 27.582L276.698 26.698C276.698 25.406 276.97 24.284 277.514 23.332C278.081 22.3573 278.851 21.598 279.826 21.054C280.823 20.51 281.945 20.238 283.192 20.238C284.393 20.238 285.47 20.544 286.422 21.156C287.374 21.7453 288.122 22.5273 288.666 23.502C289.21 24.454 289.482 25.4853 289.482 26.596V37H285.028ZM273.978 37V20.578H278.432V37H273.978ZM298.238 37.136L291.37 20.578H296.198L300.754 33.226H299.122L303.848 20.578H308.71L301.4 37.136H298.238ZM293.682 43.868L298.68 33.294L301.4 37.136L298.408 43.868H293.682Z" fill="#1C274C"/>
<defs>
<filter id="filter0_d_59018_254" x="0" y="0" width="54" height="54" filterUnits="userSpaceOnUse" color-interpolation-filters="sRGB">
<feFlood flood-opacity="0" result="BackgroundImageFix"/>
<feColorMatrix in="SourceAlpha" type="matrix" values="0 0 0 0 0 0 0 0 0 0 0 0 0 0 0 0 0 0 127 0" result="hardAlpha"/>
<feOffset dy="4"/>
<feGaussianBlur stdDeviation="2"/>
<feComposite in2="hardAlpha" operator="out"/>
<feColorMatrix type="matrix" values="0 0 0 0 0 0 0 0 0 0 0 0 0 0 0 0 0 0 0.25 0"/>
<feBlend mode="normal" in2="BackgroundImageFix" result="effect1_dropShadow_59018_254"/>
<feBlend mode="normal" in="SourceGraphic" in2="effect1_dropShadow_59018_254" result="shape"/>
</filter>
</defs>
</svg>
